<?xml version="1.0" encoding="utf-8"?>
<!-- Generator: Adobe Illustrator 19.1.0, SVG Export Plug-In . SVG Version: 6.00 Build 0)  -->
<svg version="1.1" xmlns="http://www.w3.org/2000/svg" xmlns:xlink="http://www.w3.org/1999/xlink" x="0px" y="0px"
	 viewBox="0 0 683 506.5" style="enable-background:new 0 0 683 506.5;" xml:space="preserve">
<style type="text/css">
	.st0{fill:#A7D0E0;}
	.st1{fill:#2D2C28;}
	.st2{fill:url(#);}
	.st3{fill:#FF614D;}
	.st4{fill:#FFFFFF;}
	.st5{fill:#FFFF00;}
	.st6{fill:#FF8171;}
	.st7{fill:#FFA094;}
	.st8{fill:#FFC0B8;}
	.st9{fill:#FFDFDB;}
	.st10{fill:#B9D9E6;}
	.st11{fill:#CAE3EC;}
	.st12{fill:#DCECF3;}
	.st13{fill:#EDF6F9;}
	.st14{fill:#575653;}
	.st15{fill:#81807E;}
	.st16{fill:#ABABA9;}
	.st17{fill:#D5D5D4;}
</style>
<g id="BG">
</g>
<g id="cnt">
	<g>
		<path class="st1" d="M161.2,227.8c-2-1.8-4.3-3.1-7.2-4.1c-2.8-1-6-1.4-9.6-1.4h-20.2v61.9h12.1v-20.4h8.3c3.5,0,6.6-0.4,9.4-1.4
			c2.8-1,5.2-2.3,7.2-4.1c2-1.8,3.5-3.9,4.5-6.5c1.1-2.6,1.6-5.5,1.6-8.8c0-3.3-0.5-6.2-1.6-8.8
			C164.6,231.7,163.1,229.6,161.2,227.8z M152.1,250c-1.9,1.7-4.4,2.5-7.7,2.5v0.1h-8.2v-18.8h8.2c3.3,0,5.9,0.8,7.7,2.4
			s2.8,3.9,2.8,6.9C154.9,246,154,248.3,152.1,250z"/>
		<polygon class="st1" points="210.1,222.5 198.1,222.5 198.1,284.2 234.1,284.2 234.1,272.2 210.1,272.2 		"/>
		<path class="st1" d="M282.2,222.3l-22.9,62h12.9l4.1-11.8h24.3l4.1,11.8h12.8l-22.9-62H282.2z M280,261.5l5.8-16.9
			c0.4-1.1,0.7-2.1,1-3.2l0.8-2.7c0.3-0.8,0.4-1.4,0.6-2l0.2-0.7h0.1l0.3,0.8c0.2,0.5,0.4,1.2,0.6,2l0.8,2.8c0.3,1.1,0.6,2.1,1,3.2
			l5.8,16.6H280z"/>
		<path class="st1" d="M381.9,271.5c-2.6,1.6-5.5,2.4-8.7,2.4c-2.4,0-4.6-0.4-6.7-1.3c-2-0.9-3.8-2.2-5.3-4
			c-1.5-1.8-2.7-3.9-3.5-6.4c-0.8-2.5-1.2-5.3-1.2-8.5c0-6.3,1.5-11.3,4.4-14.9c2.9-3.6,7-5.4,12.2-5.4c2.8,0,5.3,0.6,7.8,1.9
			c2.5,1.2,4.4,3.2,5.9,5.8l-0.1-0.3l12.1-3.2c-2.4-5.1-5.9-9.1-10.3-12.1c-4.4-2.9-9.6-4.3-15.3-4.3c-4.2,0-8.1,0.8-11.6,2.3
			c-3.5,1.5-6.7,3.7-9.2,6.6c-2.6,2.8-4.6,6.2-6,10.2c-1.4,4-2.1,8.4-2.1,13.3c0,4.9,0.7,9.3,2.1,13.3c1.4,4,3.5,7.4,6,10.2
			c2.6,2.8,5.7,5.1,9.2,6.6c3.5,1.4,7.5,2.2,11.6,2.2c6.1,0,11.5-1.5,16.2-4.7c4.7-3.2,8.2-7.6,10.4-13.4l-12-3.1
			C386.5,267.6,384.5,269.9,381.9,271.5z"/>
		<polygon class="st1" points="442.6,257.8 464.7,257.8 464.7,247 442.6,247 442.6,233.7 470.9,233.7 470.9,222.3 430.6,222.3 
			430.6,284.2 471.5,284.2 471.5,272.8 442.6,272.8 		"/>
		<path class="st1" d="M556.5,240.9c-1.5-3.8-3.6-7.1-6.4-9.8c-2.8-2.7-5.9-4.9-9.7-6.4c-3.7-1.5-7.8-2.2-12.2-2.2l0.1-0.2h-23.1v62
			h23.4c4.3,0,8.3-0.6,12.1-2c3.7-1.4,6.9-3.5,9.6-6.1c2.7-2.7,4.8-5.9,6.3-9.7c1.5-3.8,2.2-8.1,2.2-12.8
			C558.8,248.9,558,244.7,556.5,240.9z M545.3,262c-0.9,2.4-2.1,4.4-3.6,6.1c-1.5,1.7-3.4,2.9-5.5,3.8c-2.1,0.9-4.4,1.3-6.9,1.3
			l0.2-0.3h-11.9v-39.3H529c2.5,0,4.8,0.4,6.9,1.3c2.1,0.9,4,2.2,5.6,3.9c1.6,1.7,2.8,3.8,3.7,6.3c0.9,2.5,1.3,5.3,1.3,8.5
			C546.6,256.9,546.2,259.6,545.3,262z"/>
		<polygon class="st1" points="74.1,74.1 124.2,74.1 124.2,62.1 62.1,62.1 62.1,98.1 74.1,98.1 		"/>
		<polygon class="st1" points="608.9,98.1 620.9,98.1 620.9,62.1 558.8,62.1 558.8,74.1 608.9,74.1 		"/>
		<polygon class="st1" points="608.9,408.4 608.9,432.4 558.8,432.4 558.8,444.4 620.9,444.4 620.9,408.4 		"/>
		<polygon class="st1" points="74.1,408.4 62.1,408.4 62.1,444.4 124.2,444.4 124.2,432.4 74.1,432.4 		"/>
	</g>
</g>
<g id="guides">
</g>
</svg>
